<svg id="Capa_1" data-name="Capa 1" xmlns="http://www.w3.org/2000/svg" viewBox="0 0 235.09 57.17"><defs><style>.cls-1{fill:#fff;}</style></defs><path class="cls-1" d="M46.5,24.59h-.26V23.07s-8.79-.68-12-1.4-6.07.17-7.09,1.21c-1.43-1-3-1.92-8.25-1a86,86,0,0,1-11,1l0,1.73H7.45v28h0a19.8,19.8,0,0,0,5.76,13.93A19.52,19.52,0,0,0,20,70.92v2.49H16.28v5.17H38V73.41H34.37V71h-.09A19.6,19.6,0,0,0,46.86,52.61h0v-28ZM31.05,33.31v-.08c0-.3,0-.6-.05-.9l.82-1.94a6.12,6.12,0,0,1,.39,1.88,5.37,5.37,0,0,1-1.16,1m1.15-.48a6.15,6.15,0,0,1-.45,2.07,5.41,5.41,0,0,1-1,.34A5.15,5.15,0,0,0,31,33.76a6.4,6.4,0,0,0,1.17-.93m-1.3-1.2a11,11,0,0,0-.3-1.16,6.92,6.92,0,0,1,.89-.25Zm.61,3.76-.09.19a3.82,3.82,0,0,1-.62.85,6.59,6.59,0,0,1-.94.11,4,4,0,0,0,.67-.89,6.59,6.59,0,0,0,1-.26m-1.32,1.5a3.5,3.5,0,0,1-1.08.31l.32-.26.76,0m-2.46.39-.24.17-.07-1.22,1.08-.83a7,7,0,0,0,1.14-1.1,3.64,3.64,0,0,0,.66-1.44c0,.13,0,.25,0,.37,0,2.27-.91,2.9-2.58,4.05m2.95,11.94-.16-.15,4-5.44-4.56,5-.25-.17,2.83-6.13-3.45,5.81-.21-.08,1.64-6.56-2.3,6.35-.3-.05L28.2,41l-1,6.7H27L26,41l.3,6.77-.25,0-2.39-6.33,1.72,6.54-.24.1-3.49-5.81,2.87,6.14c-.08,0-.14.1-.22.15l-4.62-5,4.08,5.4-.23.24-5.39-4.09,3.25,3.05a19.8,19.8,0,0,0-4.82-1.43,12,12,0,0,1,21.12,0,20.19,20.19,0,0,0-5.15,1.57l3.52-3.24ZM32,59.61c-.2-.56-.43-1.12-.69-1.67l3.24-5.22.89,1.35Zm.46,12c.39-.11.79-.23,1.18-.37v2.21h-2V71.8l.64-.16.2-.06Zm-.61-.6-.7.17-.22,0c-.31.07-.62.12-.93.17l-.3,0q-.42.06-.84.09l-.43,0-.7,0H26.61l-.74,0-.39,0q-.43,0-.87-.09l-.26,0c-.33,0-.65-.1-1-.17l-.19,0L22.47,71a19,19,0,0,1,4.69-17.81A19,19,0,0,1,31.85,71m-1,1v1.46h-2V72.23c.67-.06,1.35-.15,2-.28m-2.77.33v1.13H26.22V72.28h0l.9,0h0l.9,0h0m-2.62,0v1.18h-2V72a19.81,19.81,0,0,0,2,.28M13.12,60.31c0-1.38,2.05-6.07,3.17-8.47,1.12,2.4,3.17,7.09,3.17,8.47a2.56,2.56,0,0,1,0,.39c-.64-1.61-1.42-3.25-1.56-3.55l-.33-.69-.33.69a39.44,39.44,0,0,0-2.38,6,3.18,3.18,0,0,1-1.71-2.81m4.42-2.13c.77,1.68,2,4.61,2,5.48a2,2,0,1,1-4.08,0c0-.87,1.26-3.8,2-5.48m1.26-2.45a1.25,1.25,0,0,1,.5.2l.88.56a1.3,1.3,0,0,0,1.44,0l.87-.56a1.3,1.3,0,0,1,1.44,0L24,56A20.42,20.42,0,0,0,23,58.07a1.22,1.22,0,0,0-.46.19l-.87.55a1.26,1.26,0,0,1-1.44,0l-.34-.21c-.26-.85-.64-1.86-1-2.87m1.34,5.19,0,0a1.3,1.3,0,0,0,1.44,0l.34-.22a19,19,0,0,0-.59,2.67,1.27,1.27,0,0,1-1.09-.07,9.1,9.1,0,0,0-.41-1.46,3.64,3.64,0,0,0,.27-.94m1.73,10.66.2.06.64.16v1.61h-2V71.2c.39.14.79.26,1.18.37Zm2.29-21.84a4.16,4.16,0,0,1,6,0,19.41,19.41,0,0,0-3,2.37,19.41,19.41,0,0,0-3-2.37m-.84-17.39a8.65,8.65,0,0,0-.05.88v.11a5.79,5.79,0,0,1-1.08-.91,6,6,0,0,1,.35-1.92Zm-.51-2.15a7.32,7.32,0,0,1,.92.24,8.46,8.46,0,0,0-.31,1.2Zm.48,3.59a4.94,4.94,0,0,0,.31,1.46,6.45,6.45,0,0,1-.92-.28,6.36,6.36,0,0,1-.48-2,6.94,6.94,0,0,0,1.09.82m.51,1.87a3.88,3.88,0,0,0,.66.89,8.12,8.12,0,0,1-.83-.09,3.59,3.59,0,0,1-.65-.88.83.83,0,0,0-.07-.13,8.94,8.94,0,0,0,.89.21m1.09,1.28.3.24a3,3,0,0,1-1-.28l.65,0M24,33.23c0-.12,0-.24,0-.37h0a3.64,3.64,0,0,0,.66,1.44,7,7,0,0,0,1.14,1.1l1.08.83-.07,1.22-.24-.17C24.92,36.13,24,35.5,24,33.23m0-.93a7.87,7.87,0,0,1,.41-1.74,5,5,0,0,0,.07.65,3,3,0,0,0,.55,1.2,5.44,5.44,0,0,0,.94.92l1,.76-.1,1.71L26,35.13a7.77,7.77,0,0,1-1.13-1,3.49,3.49,0,0,1-.71-1.31,3,3,0,0,1-.13-.52m6.07.52a3.37,3.37,0,0,1-.71,1.3,7.77,7.77,0,0,1-1.13,1l-.89.66-.1-1.7,1-.76a5.44,5.44,0,0,0,.94-.92,3,3,0,0,0,.55-1.2,4.78,4.78,0,0,0,.07-.65,7.87,7.87,0,0,1,.41,1.74c0,.17-.08.35-.13.52m-.53-1.66A2.8,2.8,0,0,1,29,32.23a6.27,6.27,0,0,1-.94.83l-.79.59-.12-2.07L27,33.65l-.79-.59a6.27,6.27,0,0,1-.94-.83,3,3,0,0,1-.6-1.07,5,5,0,0,1-.17-.79,8.09,8.09,0,0,1,2.34-3.3l.28,2.13.28-2.13a8.09,8.09,0,0,1,2.34,3.3,4.12,4.12,0,0,1-.18.79M8.19,25.32a66.51,66.51,0,0,0,9-.84c4.48-.64,7.73-1.1,9.6.64v1.09A8.8,8.8,0,0,0,24,29.76a7.09,7.09,0,0,0-1.53-.35l-.26,0-.11.24A7,7,0,0,0,22.34,36c1,1.83,2.2,1.94,3.81,2.08l.26,0,.38.27v1.53a12.68,12.68,0,0,0-11,6.88,20,20,0,0,0-7.44.52l-.19,0Zm0,27.27v0l0-4.52a5.18,5.18,0,0,1,.56-.17h0L9,47.85l.5-.11h0a19,19,0,0,1,17.1,4.9,17.25,17.25,0,0,0-1.57,1.85.91.91,0,0,1-.26-.13l-.88-.56a1.3,1.3,0,0,0-1.44,0l-.87.56a1.3,1.3,0,0,1-1.44,0l-.88-.56a1.29,1.29,0,0,0-1.34,0c-.69-1.56-1.28-2.8-1.34-2.93l-.33-.69-.33.69c-.06.13-.66,1.37-1.35,3a1.26,1.26,0,0,0-1.37,0l-.87.56a1.3,1.3,0,0,1-1.44,0l-.87-.56a1.3,1.3,0,0,0-1.44,0L8.26,54q-.06-.72-.06-1.44M9,58.08A18.52,18.52,0,0,1,8.51,56l.11-.07a1.3,1.3,0,0,1,1.44,0l.87.56a1.3,1.3,0,0,0,1.44,0l.87-.56a1.49,1.49,0,0,1,.54-.2c-.4,1-.77,2-1,2.85l-.37.23a1.26,1.26,0,0,1-1.44,0l-.87-.55A1.33,1.33,0,0,0,9,58.08m2.62,5.4a18.2,18.2,0,0,1-1.81-3.22c.08,0,.16.07.24.12l.87.56a1.3,1.3,0,0,0,1.44,0l.06,0a3.87,3.87,0,0,0,.79,1.83l-.85.54a1.29,1.29,0,0,1-.74.21M17,67.72a1.25,1.25,0,0,1-1,.17A17.78,17.78,0,0,1,13.74,66c-.3-.31-.59-.62-.87-.94l.37-.24a1.3,1.3,0,0,1,1.44,0l.53.34a2.78,2.78,0,0,0,4.65,0l.32.21a1.32,1.32,0,0,0,1,.18,20,20,0,0,0,.06,2.32,1.3,1.3,0,0,1-1-.18l-.88-.56a1.28,1.28,0,0,0-1.43,0Zm1,1.49a1.28,1.28,0,0,1,1.28.08l.88.56a1.29,1.29,0,0,0,1.31.07c.05.27.1.55.17.82A18.72,18.72,0,0,1,18,69.21m19.29,8.64H17V74.14h20.3Zm-4.64-7.11a20.51,20.51,0,0,0,.41-2.57H38a19.23,19.23,0,0,1-5.32,2.57m8.52-5.37h-8a18,18,0,0,0-.26-2.43h3.84a.33.33,0,0,0,.22,0h6.12a17.46,17.46,0,0,1-1.87,2.43m-1.32-3.16H37.42l2.41-4.79-3.2,4.79h-3l3.47-5.57.28-.47,0,0,2.07-3.34.55.52L39.83,55l.71-1.23,1.77-3,.46.75,2,2.86Zm6.26-9.61v0A18.11,18.11,0,0,1,46,54.89l-2.58-3.78L42.3,49.35l-1.95,3.26-1-1-2.25,3.62-2.58-3.92-3.6,5.81a19.55,19.55,0,0,0-3.25-4.52,19,19,0,0,1,17.11-4.9h0l.56.13.19,0h0a5.36,5.36,0,0,1,.57.17l0,4Zm0-5.3-.19,0a19.76,19.76,0,0,0-7.44-.52,12.69,12.69,0,0,0-11-6.88V38.32l.37-.26.35,0c1.61-.14,2.77-.25,3.81-2.08a7,7,0,0,0,.25-6.33l-.11-.24-.26,0a7.25,7.25,0,0,0-1.61.37,8.79,8.79,0,0,0-2.8-3.57v-1.1c1.87-1.73,5.13-1.27,9.6-.63a66.51,66.51,0,0,0,9,.84Z" transform="translate(-7.45 -21.42)"/><polygon class="cls-1" points="16.83 40.5 19.25 40.5 19.25 41.93 17.6 40.9 16.83 40.9 16.83 44.48 17.71 44.48 17.71 42.01 19.25 42.96 19.25 45.58 19.71 45.69 20.16 45.58 20.16 43.53 21.71 44.48 22.58 44.48 22.58 40.9 21.69 40.9 21.66 43.45 20.16 42.51 20.16 40.5 22.58 40.5 22.58 39.82 16.83 39.82 16.83 40.5"/><polygon class="cls-1" points="21.67 45.61 20.16 45.98 19.71 46.09 19.25 45.98 17.71 45.6 17.71 44.89 16.83 44.89 16.83 45.38 16.83 46.08 17.71 46.3 19.71 46.79 21.66 46.31 22.58 46.08 22.58 45.38 22.58 44.89 21.68 44.89 21.67 45.61"/><path class="cls-1" d="M20,76.92l.11,0a1.11,1.11,0,0,0,.34.06.59.59,0,0,0,.67-.57.54.54,0,0,0-.3-.47l-.39-.2c-.21-.12-.28-.18-.28-.31a.26.26,0,0,1,.3-.26.46.46,0,0,1,.33.15.68.68,0,0,1,.18.34H21v-.58h-.08c0,.07,0,.09-.09.09l-.11,0a.94.94,0,0,0-.31-.06.52.52,0,0,0-.59.54c0,.27.16.42.46.56a2.57,2.57,0,0,1,.33.18.28.28,0,0,1,.15.23c0,.19-.13.3-.34.3a.46.46,0,0,1-.38-.19.79.79,0,0,1-.16-.38H19.8V77h.08c0-.07,0-.09.08-.09" transform="translate(-7.45 -21.42)"/><path class="cls-1" d="M21.52,75.48v.86a.58.58,0,0,0,.22.53.75.75,0,0,0,.49.14.81.81,0,0,0,.49-.14.76.76,0,0,0,.21-.58v-.84c0-.16,0-.2.2-.23v-.07h-.58v.07c.2,0,.26.07.26.26v.81c0,.39-.16.59-.47.59s-.39-.17-.39-.54v-.85c0-.22,0-.25.25-.27v-.07h-.9v.07c.19,0,.22,0,.22.26" transform="translate(-7.45 -21.42)"/><path class="cls-1" d="M23.51,76.92l.11,0A1.12,1.12,0,0,0,24,77a.59.59,0,0,0,.66-.57.55.55,0,0,0-.29-.47l-.4-.2c-.21-.12-.27-.18-.27-.31A.26.26,0,0,1,24,75.2a.44.44,0,0,1,.33.15.78.78,0,0,1,.19.34h.07v-.58h-.08c0,.07,0,.09-.08.09l-.11,0a1,1,0,0,0-.32-.06.52.52,0,0,0-.58.54c0,.27.15.42.45.56a2,2,0,0,1,.33.18.28.28,0,0,1,.15.23.29.29,0,0,1-.33.3.47.47,0,0,1-.39-.19.9.9,0,0,1-.16-.38h-.08V77h.08c0-.07,0-.09.08-.09" transform="translate(-7.45 -21.42)"/><path class="cls-1" d="M25.45,75.24v1.41c0,.2,0,.23-.26.24V77h1v-.07c-.23,0-.26,0-.26-.24V75.24c.33,0,.47.13.51.45h.08v-.54h-1.6v.54h.08c0-.32.18-.44.51-.45" transform="translate(-7.45 -21.42)"/><path class="cls-1" d="M27.62,76.89c-.2,0-.25,0-.25-.21V75.42c0-.15.05-.19.25-.2v-.07h-.94v.07c.2,0,.25,0,.25.2v1.26c0,.16-.05.2-.25.21V77h.94Z" transform="translate(-7.45 -21.42)"/><path class="cls-1" d="M28.38,76.89c-.2,0-.25-.07-.25-.28V75.55L29.33,77h.07V75.44c0-.17,0-.19.21-.22v-.07H29v.07c.2,0,.25.07.25.28v.8l-.94-1.15h-.56v.07c.05,0,.11,0,.22.19v1.26c0,.16,0,.2-.23.22V77h.6Z" transform="translate(-7.45 -21.42)"/><path class="cls-1" d="M31.45,76.41h-.07a.77.77,0,0,1-.22.32.7.7,0,0,1-.49.15c-.17,0-.22,0-.22-.15v-.65c.29,0,.41.1.43.42H31v-.91h-.07c0,.31-.15.4-.43.4v-.6c0-.1,0-.15.17-.15.44,0,.57.09.64.45h.06v-.54H29.78v.07c.19,0,.23,0,.23.19v1.28c0,.14,0,.18-.23.2V77h1.56Z" transform="translate(-7.45 -21.42)"/><path class="cls-1" d="M32.56,76.9c-.21,0-.23-.06-.23-.25v-.53h.07L33,77h.54V76.9a.15.15,0,0,1-.11-.06l-.54-.76a.64.64,0,0,0,.3-.15.44.44,0,0,0,.12-.32c0-.3-.27-.46-.79-.46h-.82v.07c.2,0,.24.06.24.27v1.15c0,.21,0,.23-.24.26V77h.9Zm-.23-1.54c0-.08,0-.12.14-.12s.35.12.35.4-.14.4-.49.4Z" transform="translate(-7.45 -21.42)"/><path class="cls-1" d="M34.58,76.89c-.2,0-.26,0-.26-.21V75.42c0-.15.06-.19.26-.2v-.07h-.94v.07c.19,0,.25,0,.25.2v1.26c0,.16,0,.2-.25.21V77h.94Z" transform="translate(-7.45 -21.42)"/><path class="cls-1" d="M14.08,59.09a.43.43,0,0,1,0,0,.37.37,0,0,0,.27.45.36.36,0,0,0,.44-.27l1.32-5.4Z" transform="translate(-7.45 -21.42)"/><path class="cls-1" d="M16.69,63.52a.37.37,0,0,0,.39-.35l.14-2.47L16.36,63a.36.36,0,0,0,0,.11.38.38,0,0,0,.35.39" transform="translate(-7.45 -21.42)"/><path class="cls-1" d="M15.17,34.2h3.37V28.33l-.51.21a2.35,2.35,0,0,1-1.4-.15,2,2,0,0,0-1.8,0,2,2,0,0,0-1.8,0,2.25,2.25,0,0,1-1.39.15l-.51-.21V34.2h4ZM15.23,29c.2-.19.54-.12,1.19.08a3.78,3.78,0,0,0,1.38.24v4.14H15.23Zm-.8,4.46H11.86V29.33a3.87,3.87,0,0,0,1.39-.24c.64-.2,1-.27,1.18-.08Z" transform="translate(-7.45 -21.42)"/><path class="cls-1" d="M15.17,41.12h3.37V35.24l-.51.21a2.28,2.28,0,0,1-1.4-.15,2,2,0,0,0-1.8,0,2,2,0,0,0-1.8,0,2.25,2.25,0,0,1-1.39.15l-.51-.21v5.88h4Zm.06-5.2c.2-.19.54-.11,1.19.08a3.79,3.79,0,0,0,1.38.25v4.13H15.23Zm-.8,4.46H11.86V36.25A3.88,3.88,0,0,0,13.25,36c.64-.19,1-.27,1.18-.08Z" transform="translate(-7.45 -21.42)"/><rect class="cls-1" x="8.36" y="8.63" width="1.11" height="0.74"/><rect class="cls-1" x="8.36" y="10.17" width="1.11" height="0.74"/><rect class="cls-1" x="8.36" y="15.55" width="1.11" height="0.74"/><rect class="cls-1" x="8.36" y="17.08" width="1.11" height="0.74"/><rect class="cls-1" x="5.14" y="8.63" width="1.11" height="0.74"/><rect class="cls-1" x="5.14" y="10.17" width="1.11" height="0.74"/><rect class="cls-1" x="5.14" y="15.55" width="1.11" height="0.74"/><rect class="cls-1" x="5.14" y="17.08" width="1.11" height="0.74"/><path class="cls-1" d="M37.6,32.21a2.12,2.12,0,0,0-.5,2.37,2.16,2.16,0,0,0,2,1.36h.3a2.65,2.65,0,0,0,2.1-.91,4.45,4.45,0,0,0,.61-3.29l-.51.58-.09.09a4.43,4.43,0,0,0-1.25-2.48c-1.31-1.65-.62-2.48-.62-2.48s-2.78.36-1.22,3.91a1.46,1.46,0,0,1,0,1.16,1,1,0,0,1-.22.34,1.27,1.27,0,0,1,0-.38l0-.95Zm1.21,1.12a2.09,2.09,0,0,0,.3-2.3,2.54,2.54,0,0,1-.31-2,5.63,5.63,0,0,0,.92,1.4c.71.88,1.38,1.71,1,2.67l-.25.54a2.37,2.37,0,0,0,1.08-.2A2.45,2.45,0,0,1,41,34.55a1.85,1.85,0,0,1-1.25.63l.11-.22a3.12,3.12,0,0,0,.25-.94,3,3,0,0,0,0-1,3.76,3.76,0,0,0-.28-.88s0,2.38-.85,3a1.39,1.39,0,0,1-1.13-.89,1.43,1.43,0,0,1-.08-.88.69.69,0,0,0,.24.18.77.77,0,0,0,.86-.27" transform="translate(-7.45 -21.42)"/><path class="cls-1" d="M40.82,36.7h1l-.22-.47H37.37l-.22.47h1l0,.43H36.23l1.38,1.66h.47l.41,2.29h1.95l.41-2.29h.47l1.38-1.66H40.76Zm.31,1.17-.16.18H40.2l-.41,2.29h-.65l-.41-2.29H38l-.15-.18Z" transform="translate(-7.45 -21.42)"/><path class="cls-1" d="M84.41,44.82c-.45-3.2-1.85-4.43-5.15-4.54V54.43c0,2,.29,2.31,2.63,2.47v.67H72.3V56.9c2.31-.19,2.61-.48,2.61-2.47V40.28c-3.33.11-4.73,1.34-5.19,4.54H69l.08-5.4H85.14l0,5.4Z" transform="translate(-7.45 -21.42)"/><path class="cls-1" d="M104.85,40.09c-1.74.27-2.09.54-2.09,2.23V58.06H102L90,43.42V54.06c0,2.06.46,2.6,2.53,2.84v.67H86.46V56.9c2-.24,2.36-.62,2.36-2.25V42c-1.13-1.55-1.75-1.93-2.28-1.93v-.67H92.2L101.58,51v-8c0-2.15-.49-2.66-2.47-2.85v-.67h5.74Z" transform="translate(-7.45 -21.42)"/><path class="cls-1" d="M140.55,40.09c-1.72.27-2.1.7-2.1,2.28v8.44c0,2.68-.72,4.75-2,5.8a8.1,8.1,0,0,1-4.94,1.47,7.86,7.86,0,0,1-5-1.45c-1.53-1.21-2.15-2.66-2.15-5.26v-8.7c0-2.18-.32-2.39-2.2-2.58v-.67h9v.67c-2.09.16-2.55.51-2.55,2.71v8.54c0,3.74,1.32,5.43,3.92,5.43,3.14,0,4.73-2,4.73-6V42.75c0-2-.62-2.5-2.61-2.66v-.67h5.89Z" transform="translate(-7.45 -21.42)"/><path class="cls-1" d="M149.3,57.57v-.64c.91-.11,1.24-.54,1.24-1.61V49c0-1.5-.46-2.28-1.37-2.28a2.7,2.7,0,0,0-1.88.91,1.56,1.56,0,0,0-.46.65v7.09c0,1,.3,1.47,1.29,1.61v.64h-6.45v-.64c1.21-.24,1.43-.57,1.43-1.69V47.48c0-1.16-.24-1.45-1.43-1.64v-.65h5.13v2h0a4.15,4.15,0,0,1,3.81-2.34,3.48,3.48,0,0,1,3.63,3.81v6.64c0,1.21.27,1.53,1.32,1.61v.64Z" transform="translate(-7.45 -21.42)"/><path class="cls-1" d="M156.79,57.57v-.64c1.24-.3,1.43-.48,1.43-1.72V47.56c0-1.21-.27-1.48-1.45-1.72v-.65H162v10.1c0,1.16.35,1.5,1.29,1.64v.64ZM160,43.18A2,2,0,0,1,158,41.11a2.08,2.08,0,1,1,4.16,0A2,2,0,0,1,160,43.18Z" transform="translate(-7.45 -21.42)"/><path class="cls-1" d="M177.18,45.84c-.83.08-1.05.24-1.56,1.47L171.32,58h-.69l-3.23-8a36.13,36.13,0,0,0-1.77-3.79c-.16-.21-.32-.29-.91-.37v-.65h6.71v.65l-.48,0c-.67.08-.94.24-.94.65a2.17,2.17,0,0,0,.24.83l2.12,5.45,1.94-4.89a3.15,3.15,0,0,0,.29-1.21c0-.64-.32-.83-1.48-.88v-.65h4.06Z" transform="translate(-7.45 -21.42)"/><path class="cls-1" d="M188.75,54.57c-1.61,2.55-3,3.38-5.31,3.38-3.25,0-5.48-2.71-5.48-6.39,0-4,2.25-6.69,5.61-6.69A4.37,4.37,0,0,1,187,46.21,7.7,7.7,0,0,1,188.59,51h-6.76c.16,2.55.56,5,3.19,5,1.16,0,2-.51,3.09-1.83Zm-3.46-5.13a6,6,0,0,0-.24-2.47c-.38-.81-.7-1.27-1.48-1.27-1.23,0-1.88,1.08-1.88,4.3h3.6Z" transform="translate(-7.45 -21.42)"/><path class="cls-1" d="M195.39,47.4c1.26-1.83,2.28-2.53,3.62-2.53A2.08,2.08,0,0,1,201.19,47a1.69,1.69,0,0,1-1.69,1.83,1.71,1.71,0,0,1-1.61-1c-.3-.49-.54-.62-.76-.62-.94,0-1.63,1.21-1.63,2.79v4.76c0,1.72.29,2.09,1.93,2.2v.64h-7.12v-.64c1.18-.22,1.45-.51,1.45-1.61V47.56c0-1.27-.32-1.56-1.47-1.72v-.65h5.1Z" transform="translate(-7.45 -21.42)"/><path class="cls-1" d="M210.24,48.82a4.74,4.74,0,0,0-1.26-2.2,2.88,2.88,0,0,0-2-.86,1.63,1.63,0,0,0-1.77,1.55c0,.92.75,1.62,2.58,2.37,2.68,1.13,3.7,2.28,3.7,4.19A3.92,3.92,0,0,1,207.34,58a9.61,9.61,0,0,1-2.9-.62,1.86,1.86,0,0,0-.62-.16c-.24,0-.4.19-.7.75h-.67V53.49h.75c.57,2.34,1.8,3.55,3.68,3.55a1.79,1.79,0,0,0,2-1.75c0-.86-.73-1.53-2.58-2.34-2.71-1.15-3.82-2.39-3.82-4.16a4,4,0,0,1,4.22-3.92,6.33,6.33,0,0,1,2.1.4,3,3,0,0,0,.83.19c.35,0,.51-.13.67-.54h.59v3.9Z" transform="translate(-7.45 -21.42)"/><path class="cls-1" d="M213,57.57v-.64c1.23-.3,1.42-.48,1.42-1.72V47.56c0-1.21-.27-1.48-1.45-1.72v-.65h5.18v10.1c0,1.16.35,1.5,1.29,1.64v.64Zm3.25-14.39a2,2,0,0,1-2.07-2.07,2.08,2.08,0,1,1,4.16,0A2,2,0,0,1,216.23,43.18Z" transform="translate(-7.45 -21.42)"/><path class="cls-1" d="M229.25,54.86c-1.1,2.2-2.17,3-4,3a2.73,2.73,0,0,1-3-2.88V46.37h-1.42v-.72c1.93-1.32,2.92-2.74,4.48-5H226v4.54h2.56v1.18H226v8c0,1.07.3,1.61,1.05,1.61.57,0,1-.4,1.53-1.42Z" transform="translate(-7.45 -21.42)"/><path class="cls-1" d="M242.55,45.84c-.84.1-1.18.32-1.61,1.47L237,58c-.94,2.53-1.5,3.57-2.07,4.19a3,3,0,0,1-2.25.89c-1.53,0-2.61-.86-2.61-2.12a1.66,1.66,0,0,1,1.67-1.8,1.5,1.5,0,0,1,1.61,1.39,2.84,2.84,0,0,1-.05.38.51.51,0,0,0,0,.16.47.47,0,0,0,.45.46c.65,0,1.32-.86,1.78-2.2l.48-1.43-3.2-7.79A38.48,38.48,0,0,0,231,46.21c-.17-.21-.33-.29-.92-.37v-.65h6.69v.65l-.43,0c-.67.06-1,.27-1,.68a11.58,11.58,0,0,0,.54,1.55l1.93,5L239.62,48a3.84,3.84,0,0,0,.3-1.32c0-.64-.3-.83-1.45-.88v-.65h4.08Z" transform="translate(-7.45 -21.42)"/><rect class="cls-1" x="105.18" y="12.48" width="1.01" height="28.56"/></svg>